# xmcd
#
# Track frame offsets:
#	150
#	18895
#	40177
#	62780
#	78115
#	87822
#	113627
#	133552
#	148307
#	166815
#	184187
#	215622
#	230120
#	247650
#	265952
#	282595
#
# Disc length: 3923
#
# Revision: 3
# Processed by: cddbd v1.5.1PL0 Copyright (c) Steve Scherf et al.
# Submitted via: audiograbber 1.81.02
# Normalized: r2:DSETVAR1
#
DISCID=dd0f5110
DTITLE=Various Artist - Greatest Soul Moments [CD 2)
DYEAR=1900
DGENRE=
TTITLE0=Maceo and The Macks - Soul Power
TTITLE1=Bobby Byrd - I Know You Got Soul
TTITLE2=The JB's - Doin' It To Death
TTITLE3=Lyn Collins - Think (About It)
TTITLE4=James Brown - Papa's Got A Brand New Bag
TTITLE5=Parliament - Give Up The Funk
TTITLE6=Ohio Players - Fire
TTITLE7=Kool and The Gang - Spirit Of The Boogie
TTITLE8=Kurtis Blow - The Breaks
TTITLE9=Bohannon - Let's Start The Dance
TTITLE10=Roy Ayers - Running Away
TTITLE11=Stylistics - Can't Give You Anything (But My Love)
TTITLE12=Johnny Bristol - Hang On In There Baby
TTITLE13=Barry White - Can't Get Enough Of Your Love Babe
TTITLE14=Joneses - Sugar Pie Guy
TTITLE15=Billy Preston - Nothing From Nothing
EXTD=
EXTT0=
EXTT1=
EXTT2=
EXTT3=
EXTT4=
EXTT5=
EXTT6=
EXTT7=
EXTT8=
EXTT9=
EXTT10=
EXTT11=
EXTT12=
EXTT13=
EXTT14=
EXTT15=
PLAYORDER=
